Coordinates
version=1
nRows=29
nColumns=24
inDegrees=yes

Units are S.I. units (second, meters, Newtons, ...)
Angles are in degrees.

endheader
time	pelvis_tilt	pelvis_list	pelvis_rotation	pelvis_tx	pelvis_ty	pelvis_tz	hip_flexion_r	hip_adduction_r	hip_rotation_r	knee_angle_r	ankle_angle_r	subtalar_angle_r	mtp_angle_r	hip_flexion_l	hip_adduction_l	hip_rotation_l	knee_angle_l	ankle_angle_l	subtalar_angle_l	mtp_angle_l	lumbar_extension	lumbar_bending	lumbar_rotation
      0.85883333	     -4.14030725	     -0.25066328	     -7.23122052	     -0.15304865	      0.88508454	      0.32913286	    -13.27568031	      3.54166731	      5.69225123	    -11.56246293	     16.96381689	      9.69953006	     10.67017730	     33.84393493	     -3.76575055	    -11.17599401	    -20.13793540	      2.92413690	     -1.97825181	     -1.29749893	     -3.20713265	      1.06280115	     13.89604920
      0.86300000	     -4.19124831	     -0.17120866	     -7.38342884	     -0.14694416	      0.88374319	      0.32905466	    -13.26606649	      3.35458514	      5.58466982	    -12.31615035	     17.08013154	     10.14244790	     11.26130245	     33.85834912	     -3.66477277	    -11.14672077	    -20.45058389	      2.99014726	     -1.98953245	     -1.22975600	     -3.10278458	      0.93649538	     14.08980385
      0.86716667	     -4.27451590	     -0.09951857	     -7.53402102	     -0.14085099	      0.88237939	      0.32900609	    -13.19362086	      3.19209695	      5.56131133	    -13.13199512	     17.19531658	     10.45758241	     12.07400025	     33.90672471	     -3.57563817	    -11.10383394	    -20.83283032	      3.05107596	     -2.01734853	     -1.10820190	     -2.95523279	      0.81783440	     14.18955527
      0.87133333	     -4.35057577	     -0.03988657	     -7.66369235	     -0.13473339	      0.88108696	      0.32897523	    -13.12888416	      3.06439454	      5.64488820	    -13.95444851	     17.18721368	     10.45792238	     12.21462882	     33.93520739	     -3.49120313	    -11.06304608	    -21.25031383	      3.04696635	     -2.06590027	     -1.08198065	     -2.80349263	      0.72107808	     14.16677698
      0.87550000	     -4.46830067	      0.03789447	     -7.76626302	     -0.12861887	      0.87973341	      0.32885868	    -12.96186414	      2.91621323	      5.60550522	    -14.88444749	     17.23231123	     10.77327392	     12.48160109	     34.02345794	     -3.36885235	    -10.96532356	    -21.74400667	      3.05833394	     -2.17669881	     -1.02803283	     -2.62126897	      0.57468801	     14.20806823
      0.87966667	     -4.51216865	      0.15064585	     -7.83433116	     -0.12240947	      0.87856109	      0.32865985	    -12.85618987	      2.71698099	      5.46483121	    -15.83021451	     17.07504511	     11.02734463	     16.58875474	     33.99461667	     -3.16739284	    -10.84571718	    -22.19549337	      2.96873353	     -2.48042702	     -0.14169665	     -2.50011801	      0.40033647	     14.22065414
      0.88383333	     -4.58778377	      0.23203352	     -7.88375227	     -0.11624594	      0.87734591	      0.32846666	    -12.67348975	      2.57154494	      5.36295472	    -16.88139806	     17.01501677	     11.26996923	     16.67269941	     34.04143122	     -3.01317799	    -10.75935864	    -22.78182207	      2.99342624	     -2.61847209	     -0.10524818	     -2.35906518	      0.26054836	     14.20451441
      0.88800000	     -4.66453008	      0.34102073	     -7.92220088	     -0.11004722	      0.87619563	      0.32825455	    -12.45720299	      2.40112827	      5.27047787	    -17.98619058	     16.88696176	     11.47835093	     16.79201024	     34.06988662	     -2.81344148	    -10.64096515	    -23.35862797	      3.03759503	     -2.88349781	     -0.06526439	     -2.20018094	      0.06197957	     14.15158431
      0.89216667	     -4.68645092	      0.48311485	     -7.92045322	     -0.10380970	      0.87518817	      0.32789788	    -12.24784882	      2.17047531	      5.00984866	    -19.17845740	     16.72157351	     11.89491752	     17.26702051	     34.01855907	     -2.52991085	    -10.46578262	    -23.89585334	      2.97511853	     -3.31904463	      0.07005043	     -2.11335035	     -0.15210635	     14.09161329
      0.89633333	     -4.78701934	      0.57368361	     -7.90613751	     -0.09761748	      0.87409648	      0.32763170	    -11.93907485	      2.04153784	      4.90725815	    -20.40444823	     16.43834502	     11.98947907	     17.45256236	     34.10204421	     -2.33736881	    -10.34021663	    -24.57728438	      3.06269128	     -3.55984369	      0.12363316	     -1.92477086	     -0.33265185	     13.98211717
      0.90050000	     -4.79584174	      0.74254557	     -7.86500510	     -0.09138498	      0.87322093	      0.32717757	    -11.64737034	      1.77548830	      4.57425435	    -21.75996637	     16.17789213	     12.45718900	     18.29272457	     34.03833027	     -1.99888065	    -10.14175345	    -25.14250571	      3.01285094	     -4.12248387	      0.33232923	     -1.85499111	     -0.57868330	     13.83986568
      0.90466667	     -4.89077846	      0.83986039	     -7.79631934	     -0.08519621	      0.87227150	      0.32679809	    -11.25708954	      1.63619967	      4.37655300	    -23.11631718	     15.64551096	     12.50798534	     22.43909767	     34.11911378	     -1.76854354	     -9.97695216	    -25.84442568	      3.07421864	     -4.44740039	      1.35989099	     -1.67436005	     -0.75188893	     13.71865759
      0.90883333	     -4.95409745	      0.95008426	     -7.70899860	     -0.07901161	      0.87141152	      0.32639588	    -10.85450347	      1.47596430	      4.14485976	    -24.56026626	     15.18263498	     12.71913256	     22.49592091	     34.17438853	     -1.51948239	     -9.82148264	    -26.58301077	      3.29212091	     -4.69167252	      1.38748965	     -1.54462161	     -0.97390765	     13.53893952
      0.91300000	     -5.01107526	      1.08540001	     -7.60729318	     -0.07285539	      0.87063113	      0.32588405	    -10.38251541	      1.26493845	      3.80987974	    -26.12907064	     14.71679075	     13.02771384	     22.65186117	     34.20921010	     -1.22290742	     -9.64481244	    -27.27956456	      3.40602306	     -5.07930918	      1.42823896	     -1.41647573	     -1.16520991	     13.31612997
      0.91716667	     -5.01607256	      1.26145721	     -7.49388357	     -0.06667932	      0.87002296	      0.32533379	     -9.92907260	      0.99117733	      3.45095080	    -27.73809522	     14.13870946	     13.37574076	     23.13863037	     34.15848854	     -0.85836932	     -9.42859373	    -27.91716542	      3.58664263	     -5.55500155	      1.52890964	     -1.36087416	     -1.45059799	     13.08004520
      0.92133333	     -5.08691802	      1.37721731	     -7.35293384	     -0.06056978	      0.86934669	      0.32481848	     -9.37097592	      0.80884069	      3.12544506	    -29.40203878	     13.46023403	     13.56876713	     23.35848388	     34.22993793	     -0.59391797	     -9.27876849	    -28.68086223	      3.86141743	     -5.74981086	      1.57607327	     -1.22222441	     -1.65119783	     12.87605599
      0.92550000	     -5.11753142	      1.53553728	     -7.20863112	     -0.05446937	      0.86881144	      0.32424521	     -8.79824112	      0.55050671	      2.74526842	    -31.14318086	     12.74186690	     13.85314552	     23.63935630	     34.22641273	     -0.26594130	     -9.10841593	    -29.37322700	      4.15093034	     -6.03592435	      1.62704765	     -1.13530354	     -1.90778365	     12.62443719
      0.92966667	     -5.08031994	      1.73144657	     -7.06650675	     -0.04837661	      0.86846592	      0.32361599	     -8.25456933	      0.21971067	      2.34031974	    -32.93186635	     11.96966190	     14.20837350	     24.48933284	     34.11020128	      0.12951717	     -8.89695567	    -29.98090839	      4.46951138	     -6.49078771	      1.74878823	     -1.15191797	     -2.21150587	     12.31588126
      0.93383333	     -5.11557183	      1.87438006	     -6.88837656	     -0.04233289	      0.86804857	      0.32303797	     -7.60688759	     -0.02907291	      1.94094463	    -34.75224712	     11.07517658	     14.37421156	     24.73560589	     34.11428171	      0.42203409	     -8.78662324	    -30.69225004	      4.84621669	     -6.50983291	      1.79365766	     -1.05836977	     -2.45947287	     12.11816129
      0.93800000	     -5.04981938	      2.09337544	     -6.68712950	     -0.03627933	      0.86787857	      0.32230783	     -7.02944203	     -0.41480723	      1.44377406	    -36.60403084	     10.15143006	     14.69110025	     25.88164789	     33.94106434	      0.87033313	     -8.54411579	    -31.23423385	      5.17086269	     -6.89516197	      1.93094442	     -1.11223453	     -2.81184637	     11.77886124
      0.94216667	     -5.05751273	      2.24995000	     -6.54160734	     -0.03033738	      0.86762871	      0.32176652	     -6.31806204	     -0.70922401	      1.08983104	    -38.52780666	      9.20060874	     14.85919121	     26.05141427	     33.87797331	      1.14628767	     -8.50857066	    -31.88141798	      5.65763359	     -6.83355118	      1.96629629	     -1.07316989	     -3.06260388	     11.58273003
      0.94633333	     -5.00131181	      2.43936701	     -6.36881630	     -0.02439528	      0.86758748	      0.32114768	     -5.65956315	     -1.06466120	      0.69147049	    -40.43852067	      8.16466144	     15.03289807	     26.14869134	     33.68896376	      1.50571962	     -8.37806834	    -32.39752247	      6.13235229	     -6.85905655	      1.99193751	     -1.12319123	     -3.36954744	     11.35524789
      0.95050000	     -4.94782425	      2.65877923	     -6.18392280	     -0.01850798	      0.86755390	      0.32047916	     -4.94911723	     -1.48690374	      0.21872793	    -42.41371849	      7.21008166	     15.27835614	     26.25275088	     33.49757259	      1.88825085	     -8.30665503	    -32.88665399	      6.54157841	     -6.94118772	      2.01653744	     -1.16310990	     -3.70167465	     11.04510682
      0.95466667	     -4.86588875	      2.87736969	     -6.00235533	     -0.01266327	      0.86765849	      0.31981936	     -4.25303915	     -1.91627268	     -0.21789319	    -44.37142648	      6.19199600	     15.46259035	     26.30883378	     33.23820344	      2.27503360	     -8.22110195	    -33.30364200	      6.99386775	     -6.97664201	      2.04003366	     -1.24826426	     -4.03970403	     10.76039816
      0.95883333	     -4.77714617	      3.09950241	     -5.82159507	     -0.00686941	      0.86784570	      0.31917376	     -3.54163499	     -2.35862924	     -0.64359022	    -46.32676143	      5.17001618	     15.60400351	     26.30008825	     32.94243183	      2.65904389	     -8.15388940	    -33.65824374	      7.44942521	     -6.95078960	      2.06104718	     -1.35473755	     -4.37537268	     10.48789301
      0.96300000	     -4.67374252	      3.33027511	     -5.64097116	     -0.00113168	      0.86811142	      0.31852578	     -2.82324939	     -2.82735940	     -1.06987438	    -48.28179782	      4.18091995	     15.73821595	     26.22402400	     32.60785862	      3.04654933	     -8.11004379	    -33.96221967	      7.89201954	     -6.90779953	      2.08063445	     -1.47160645	     -4.72658857	     10.19637712
      0.96716667	     -4.56270757	      3.56559179	     -5.46053842	      0.00454030	      0.86846334	      0.31787168	     -2.09382074	     -3.31257011	     -1.48456070	    -50.22278998	      3.23985376	     15.89604895	     25.95030883	     32.22931669	      3.44929963	     -8.03679752	    -34.18680487	      8.33778656	     -6.91378922	      2.10359517	     -1.61970630	     -5.08115560	      9.84351822
      0.97133333	     -4.44758684	      3.79297360	     -5.28114696	      0.01016474	      0.86888929	      0.31725312	     -1.35734005	     -3.78826559	     -1.88306906	    -52.14519245	      2.40547717	     15.93580534	     22.66078508	     31.82541130	      3.82506837	     -8.01455924	    -34.37123900	      8.76717338	     -6.80195523	      2.19335585	     -1.76505345	     -5.41440773	      9.56179210
      0.97550000	     -4.32326388	      3.99858376	     -5.12238896	      0.01574134	      0.86942687	      0.31668861	     -0.62336171	     -4.24047305	     -2.23535141	    -54.00358833	      1.47809469	     15.94552899	     22.58670203	     31.37808332	      4.15946618	     -8.02722531	    -34.49687216	      9.22549564	     -6.60037737	      2.20974382	     -1.92966057	     -5.71044249	      9.36655984
